<svg viewBox="0 0 1024 1024" version="1.1" xmlns="http://www.w3.org/2000/svg" width="200" height="200">
  <!-- 方形背景，带圆角 -->
  <rect x="0" y="0" width="1024" height="1024" rx="80" ry="80" fill="#E9F5FF"/>
  
  <!-- 蓝色矩形框 -->
  <path d="M701.44 350.802581H360.547097a45.254194 45.254194 0 0 0-33.032258 12.552258 46.245161 46.245161 0 0 0-13.708387 32.04129v256a46.575484 46.575484 0 0 0 46.740645 44.75871h340.892903a45.749677 45.749677 0 0 0 46.575484-44.75871v-256a45.419355 45.419355 0 0 0-46.575484-44.593548z" fill="#66B7FF"/>
  
  <!-- 黄色装饰线 -->
  <path d="M688.392258 331.974194H368.144516a9.579355 9.579355 0 0 1-8.753548-8.753549c0-4.294194 2.972903-7.267097 8.753548-7.267097h320.247742a9.414194 9.414194 0 0 1 8.588387 8.753549 8.092903 8.092903 0 0 1-8.588387 7.267097z m-276.810323-33.032259a8.588387 8.588387 0 0 1-8.588387-3.798709 8.753548 8.753548 0 0 1 0-9.414194 8.423226 8.423226 0 0 1 8.588387-3.963871h227.922581a9.744516 9.744516 0 0 1 8.753549 8.753549 9.249032 9.249032 0 0 1-8.753549 8.423225z" fill="#FFBE00"/>
  
  <!-- AD 文字 -->
  <path d="M473.517419 557.584516h-54.172903l-7.597419 25.434839h-49.548387l58.467096-155.416774h52.356129l57.806452 155.416774h-49.548387z m-9.909677-33.032258L445.935484 468.892903l-16.516129 55.824516z m83.736774-97.114839h71.514839a88.856774 88.856774 0 0 1 34.023226 5.780646 54.172903 54.172903 0 0 1 21.470967 16.516129 68.046452 68.046452 0 0 1 12.387097 24.939354 122.88 122.88 0 0 1 3.79871 30.059355 109.832258 109.832258 0 0 1-5.615484 37.987097 61.44 61.44 0 0 1-16.516129 22.957419 51.034839 51.034839 0 0 1-21.470968 12.387097 110.658065 110.658065 0 0 1-28.572903 4.129032h-71.019355zM595.571613 462.451613v84.892903h11.726452a52.025806 52.025806 0 0 0 21.305806-3.303226 21.636129 21.636129 0 0 0 9.909677-11.726451 68.541935 68.541935 0 0 0 3.633549-27.086452 53.842581 53.842581 0 0 0-7.927742-33.032258 34.188387 34.188387 0 0 0-26.756129-9.744516z" fill="#FFFFFF"/>
</svg>
